<svg width="36" height="38" viewBox="0 0 36 38" fill="none" xmlns="http://www.w3.org/2000/svg">
<path d="M9.43242 13.7893C10.0232 13.6111 10.6571 13.6407 11.2286 13.8731C11.8002 14.1055 12.275 14.5266 12.5739 15.0664L12.6751 15.2675L13.5675 17.2534C13.8387 17.8561 13.9267 18.5253 13.8206 19.1777C13.7146 19.8301 13.419 20.4369 12.9708 20.9227L12.7926 21.1009L11.3832 22.4144C11.1294 22.6547 11.3197 23.5849 12.2391 25.1752C13.0639 26.6062 13.7376 27.2744 14.067 27.3109H14.125L14.1966 27.2974L16.9641 26.4509C17.336 26.3368 17.7329 26.3323 18.1074 26.4379C18.4818 26.5435 18.8179 26.7547 19.0755 27.0463L19.1997 27.2015L21.0303 29.7395C21.3895 30.2368 21.5686 30.8416 21.5382 31.4544C21.5078 32.0671 21.2696 32.6512 20.8629 33.1105L20.6982 33.2806L19.9651 33.9745C19.3081 34.5967 18.4861 35.0172 17.5971 35.1859C16.708 35.3546 15.7892 35.2645 14.9499 34.9262C12.3376 33.8732 9.96432 31.4675 7.80837 27.7334C5.64837 23.9899 4.75062 20.7269 5.15157 17.9324C5.27302 17.0875 5.62107 16.2913 6.15874 15.6284C6.69642 14.9654 7.40364 14.4605 8.20527 14.1673L8.46582 14.0809L9.43242 13.7893Z" fill="black"/>
<path d="M36 9C36 13.3493 31.9703 16.875 27 16.875C26.1086 16.8762 25.2209 16.7605 24.3596 16.5308C23.7026 16.8638 22.194 17.5028 19.656 17.919C19.431 17.955 19.26 17.721 19.3489 17.5118C19.7471 16.5713 20.1071 15.318 20.2151 14.175C18.837 12.7913 18 10.98 18 9C18 4.65075 22.0297 1.125 27 1.125C31.9703 1.125 36 4.65075 36 9ZM23.625 9C23.625 8.70163 23.5065 8.41548 23.2955 8.20451C23.0845 7.99353 22.7984 7.875 22.5 7.875C22.2016 7.875 21.9155 7.99353 21.7045 8.20451C21.4935 8.41548 21.375 8.70163 21.375 9C21.375 9.29837 21.4935 9.58452 21.7045 9.7955C21.9155 10.0065 22.2016 10.125 22.5 10.125C22.7984 10.125 23.0845 10.0065 23.2955 9.7955C23.5065 9.58452 23.625 9.29837 23.625 9ZM28.125 9C28.125 8.70163 28.0065 8.41548 27.7955 8.20451C27.5845 7.99353 27.2984 7.875 27 7.875C26.7016 7.875 26.4155 7.99353 26.2045 8.20451C25.9935 8.41548 25.875 8.70163 25.875 9C25.875 9.29837 25.9935 9.58452 26.2045 9.7955C26.4155 10.0065 26.7016 10.125 27 10.125C27.2984 10.125 27.5845 10.0065 27.7955 9.7955C28.0065 9.58452 28.125 9.29837 28.125 9ZM31.5 10.125C31.7984 10.125 32.0845 10.0065 32.2955 9.7955C32.5065 9.58452 32.625 9.29837 32.625 9C32.625 8.70163 32.5065 8.41548 32.2955 8.20451C32.0845 7.99353 31.7984 7.875 31.5 7.875C31.2016 7.875 30.9155 7.99353 30.7045 8.20451C30.4935 8.41548 30.375 8.70163 30.375 9C30.375 9.29837 30.4935 9.58452 30.7045 9.7955C30.9155 10.0065 31.2016 10.125 31.5 10.125Z" fill="black"/>
</svg>
